<svg width="108" height="108" viewBox="0 0 108 108" fill="none" xmlns="http://www.w3.org/2000/svg">
<path d="M92.737 61.8519C93.1277 63.0584 93.1732 64.317 92.7747 65.5302C91.9778 67.972 89.6902 69.9221 87.1052 70.0686C87.8156 70.8878 87.4737 72.274 86.8455 73.0854C86.2972 73.7957 85.5602 74.344 85.0608 75.0921C84.5569 75.8513 84.407 76.7415 84.407 77.6361C84.4037 79.3642 84.8921 81.1412 84.3915 82.8405C83.9486 84.3466 82.7077 85.4555 81.2992 86.0648C79.338 86.9106 77.1581 86.7596 75.0804 86.5421C76.2336 88.9539 75.915 91.923 74.1369 93.9585C73.2801 94.9397 72.1346 95.6678 70.8871 96.0363C69.5874 96.4237 68.2377 96.3182 66.908 96.1828C65.615 96.0552 64.2331 95.8487 62.9589 96.2239C62.5272 96.3515 62.162 96.558 61.8468 96.8132C61.7635 96.9109 61.6847 97.0053 61.6137 97.1096C60.9 98.154 60.8246 99.4693 60.5537 100.668C60.2907 101.829 59.7801 102.881 58.8556 103.655C58.4238 104.019 57.9354 104.305 57.4049 104.501C56.7511 104.745 56.0375 104.839 55.417 105.165C54.9398 105.417 54.4292 105.86 54.4026 106.443C54.3837 106.947 54.7788 107.484 55.316 107.416C55.5336 107.39 55.5602 107.728 55.3649 107.785C54.0274 108.187 52.5845 108.007 51.3292 107.413C49.0372 106.334 47.7108 103.987 47.1736 101.597C46.8806 100.286 46.7452 98.8766 46.0648 97.6934C45.6819 97.0175 45.1025 96.4048 44.3933 96.0851C43.3111 95.9198 42.169 96.0774 41.0902 96.1828C39.7605 96.3182 38.4153 96.4237 37.1144 96.0363C35.8636 95.6678 34.717 94.9397 33.8602 93.9585C32.0832 91.9218 31.7635 88.9539 32.9167 86.5421C30.8423 86.7596 28.6591 86.9106 26.7023 86.0648C25.2894 85.4566 24.0496 84.3478 23.6067 82.8405C23.1073 81.1423 23.599 79.3653 23.5956 77.6361C23.5923 76.7415 23.4413 75.8513 22.9385 75.0921C22.4424 74.344 21.7021 73.7957 21.1538 73.0854C20.5267 72.274 20.1848 70.8878 20.8941 70.0686C18.3091 69.9221 16.0204 67.972 15.2246 65.5302C14.8306 64.317 14.875 63.0573 15.2623 61.8519C15.6985 60.4922 16.45 59.2636 16.9761 57.9405C17.5477 56.5132 17.6786 55.0891 17.1037 53.634C16.5587 52.2555 15.6386 51.0635 15.0637 49.7005C13.966 47.0888 14.2556 43.9367 15.8373 41.5848C17.3101 39.3982 19.7786 37.9997 22.398 37.7933C21.3835 34.7088 22.1838 31.1349 24.4192 28.7752C25.498 27.6408 26.8987 26.9116 28.1729 26.0325C28.8788 25.5475 29.5481 25.0025 30.0742 24.3233C30.5215 23.745 30.8711 23.0979 31.2385 22.4675C31.8734 21.3853 32.6215 20.2621 33.8801 19.8636C35.2287 19.4352 36.5972 20.0323 37.807 20.5962C39.2122 21.2466 40.674 21.9747 42.26 21.5773C43.865 21.1755 45.1192 19.9313 46.2469 18.7936C48.1104 16.9112 51.105 14.1231 53.9231 15.8968C53.9641 15.9234 53.9874 15.9534 54.0019 15.9911C54.013 15.9578 54.0363 15.9234 54.0773 15.8968C56.8954 14.1231 59.89 16.9112 61.7536 18.7936C62.8812 19.9324 64.1354 21.1755 65.7404 21.5773C67.3265 21.9758 68.7871 21.2466 70.1934 20.5962C71.4065 20.0323 72.7706 19.4352 74.1236 19.8636C75.3789 20.2621 76.1303 21.3853 76.7652 22.4675C77.1337 23.099 77.4789 23.745 77.9262 24.3233C78.4523 25.0037 79.1249 25.5486 79.8275 26.0325C81.105 26.9116 82.5024 27.6408 83.5812 28.7752C85.8211 31.1349 86.6169 34.7077 85.6068 37.7933C88.2218 37.9997 90.6947 39.3971 92.1631 41.5848C93.7492 43.9367 94.0345 47.0888 92.9412 49.7005C92.3663 51.0646 91.4417 52.2555 90.8967 53.634C90.3218 55.088 90.4572 56.5121 91.0244 57.9405C91.5494 59.2636 92.3008 60.4922 92.737 61.8519Z" fill="#CC9669"/>
<path d="M29.7993 46.3302C29.5662 46.4357 29.2732 46.4612 29.0257 46.4878C27.9058 46.5933 26.7858 46.1571 25.9112 45.4811C24.0854 44.076 23.5293 41.7241 23.4883 39.522C23.4505 37.3055 23.6614 34.6749 25.2542 32.9734C25.9601 32.222 26.9224 31.6737 27.959 31.5872C29.0146 31.4973 29.9613 31.9701 30.766 32.6127C31.6184 33.2887 32.3177 34.1611 33.2422 34.7504C34.1402 35.3254 35.3311 35.7349 36.3123 35.1112C36.5043 34.9868 36.6619 35.2543 36.5376 35.4075C35.2035 37.0568 33.8694 38.7106 32.5363 40.3633C32.5141 40.3899 32.4875 40.4088 32.4575 40.4155C32.4575 40.4232 32.4542 40.431 32.4498 40.4421C32.4009 40.6186 32.1379 40.6219 32.089 40.4421C31.8415 39.4987 31.0746 38.7439 30.15 38.4542C29.3231 38.1989 28.4407 38.3599 27.7903 38.9348C27.1821 39.472 26.8025 40.2834 26.8513 41.1025C26.9523 42.7441 29.0001 43.763 30.3942 42.9361C30.5374 42.8495 30.7061 42.9927 30.6683 43.1503C30.4885 43.8939 30.3076 44.642 30.1278 45.3901C30.0756 45.601 30.0268 45.8074 29.9735 46.0172C29.938 46.1526 29.9347 46.2659 29.7993 46.3302Z" fill="#F3E1D1"/>
<path d="M84.5143 39.5209C84.4765 41.7229 83.9171 44.0749 82.0946 45.48C81.2156 46.156 80.099 46.5922 78.9802 46.4867C78.7327 46.4601 78.4352 46.4346 78.2066 46.3291C78.0712 46.2647 78.0634 46.1526 78.0301 46.0172C77.9813 45.8063 77.9291 45.5999 77.8803 45.3901C77.7005 44.642 77.5162 43.8951 77.3353 43.1503C77.2976 42.9927 77.4663 42.8495 77.6139 42.9361C79.008 43.763 81.0513 42.7441 81.1534 41.1025C81.2056 40.2834 80.8271 39.472 80.2178 38.9348C79.564 38.3599 78.6805 38.1978 77.8581 38.4542C76.9302 38.7439 76.1677 39.4987 75.9157 40.4421C75.8702 40.6219 75.6038 40.6186 75.555 40.4421C75.5517 40.431 75.5517 40.4232 75.5472 40.4155C75.5206 40.4077 75.4951 40.3888 75.4718 40.3633C74.1343 38.7095 72.8002 37.0568 71.4661 35.4075C71.3417 35.2532 71.4994 34.9868 71.6958 35.1112C72.677 35.7349 73.8635 35.3254 74.7658 34.7504C75.686 34.1611 76.3852 33.2887 77.2387 32.6127C78.0423 31.9701 78.9891 31.4973 80.0457 31.5872C81.0824 31.6737 82.0447 32.222 82.7506 32.9734C84.3456 34.6749 84.5564 37.3043 84.5143 39.5209Z" fill="#F3E1D1"/>
<path d="M76.9654 58.7508C77.9577 60.5278 78.4272 62.489 78.3073 64.5257C78.1874 66.5624 77.5481 68.5503 76.5869 70.3417C74.5502 74.1254 71.0861 76.8725 67.682 79.3631C67.3624 79.5962 67.0438 79.8293 66.7241 80.0579C66.7808 81.7639 66.7397 83.4776 66.2547 85.1225C65.7208 86.945 64.6242 88.6465 62.8916 89.5222C62.4743 89.7331 62.0347 89.8863 61.5874 89.9773C61.1024 91.2881 60.795 92.6755 60.2045 93.9486C59.8105 94.7944 59.2844 95.6024 58.5551 96.1917C57.8226 96.7855 56.9358 97.1241 56.0112 97.2739C55.3464 97.3827 54.6771 97.4093 54.0045 97.3982C53.3319 97.4093 52.6626 97.3827 51.9977 97.2739C51.0732 97.1241 50.1863 96.7855 49.4538 96.1917C48.7213 95.6024 48.1951 94.7944 47.8045 93.9486C47.2106 92.6744 46.9065 91.2881 46.4215 89.9773C45.9709 89.8874 45.5347 89.7331 45.1173 89.5222C43.3814 88.6465 42.2848 86.945 41.751 85.1225C41.2659 83.4765 41.2282 81.7639 41.2848 80.0579C40.9651 79.8282 40.6421 79.5962 40.3269 79.3631C36.9195 76.8725 33.4543 74.1254 31.422 70.3417C30.4597 68.5492 29.8182 66.5613 29.6972 64.5257C29.5807 62.489 30.0469 60.5278 31.0391 58.7508C32.0647 56.9139 33.4698 55.2978 34.3078 53.3555C35.168 51.3676 35.2846 49.1655 35.8562 47.0922C36.127 46.0966 36.5177 45.131 37.0926 44.2708C37.6454 43.4406 38.3368 42.708 39.1071 42.0765C40.7265 40.7468 42.6955 39.7279 44.7278 39.2096C46.7079 38.7101 48.8378 38.7401 50.6836 39.6835C52.2763 40.4948 53.5882 41.9455 53.9412 43.7303C53.9445 43.7458 53.9445 43.7569 53.9445 43.7713H54.0611C54.0611 43.7558 54.0611 43.7447 54.0644 43.7303C54.4174 41.9455 55.7293 40.4948 57.322 39.6835C59.1667 38.7401 61.3011 38.7101 63.2779 39.2096C65.3101 39.7279 67.2836 40.7468 68.9029 42.0765C69.6699 42.708 70.3647 43.4406 70.9163 44.2708C71.4913 45.131 71.8786 46.0966 72.1528 47.0922C72.7199 49.1666 72.8409 51.3676 73.6967 53.3555C74.5336 55.2978 75.9431 56.9139 76.9654 58.7508Z" fill="#F3E1D1"/>
<path d="M37.1172 45.7026C37.0894 45.6759 37.0506 45.6615 37.0084 45.6549C37.1072 45.5361 37.2104 45.4207 37.3059 45.2997C37.4535 45.111 37.1893 44.8435 37.0406 45.0344C34.2824 48.5518 30.0137 50.7816 25.5685 51.1467C24.3165 51.25 23.0523 51.2067 21.8125 51.0047C21.5761 50.9658 21.474 51.3288 21.7126 51.3665C26.2211 52.0991 30.9516 50.8227 34.5533 48.0312C35.3091 47.4452 36.0095 46.7936 36.6466 46.0833C34.7753 50.3454 30.996 53.5952 26.4886 54.7862C25.1334 55.1447 23.7371 55.3156 22.3353 55.299C22.0933 55.2956 22.0933 55.6719 22.3353 55.6752C27.3721 55.7363 32.2047 53.3433 35.2103 49.3054C35.722 48.6183 36.166 47.888 36.5578 47.13C35.6732 49.8193 34.2847 52.3399 32.4711 54.5165C30.3522 57.0593 27.6729 59.1004 24.6705 60.4912C22.9635 61.2814 21.1576 61.8519 19.3074 62.1949C19.0699 62.2393 19.1709 62.6011 19.4073 62.5567C22.7426 61.9396 25.9336 60.5678 28.6785 58.5732C31.3822 56.6087 33.6276 54.0481 35.237 51.119C36.1349 49.483 36.8319 47.7382 37.307 45.9335C37.3436 45.7936 37.2293 45.7037 37.1172 45.7026Z" fill="#F3E1D1"/>
<path d="M33.7251 82.1792C31.8272 80.39 30.4642 78.0692 29.8138 75.5441C29.1456 72.9469 29.2866 70.1921 30.1656 67.6615C30.6651 66.2264 31.4021 64.8712 32.3433 63.678C32.492 63.4904 32.2279 63.2229 32.078 63.4127C30.361 65.5893 29.3088 68.2475 29.0668 71.009C28.8304 73.7094 29.4198 76.4443 30.6962 78.8317C31.4143 80.1747 32.3499 81.4001 33.4588 82.4456C33.6352 82.611 33.9016 82.3457 33.7251 82.1792Z" fill="#F3E1D1"/>
<path d="M37.7146 81.8398C33.9542 79.7032 31.4203 75.7852 31.0551 71.4698C30.9441 70.1546 31.0262 68.8282 31.3048 67.5374C31.3559 67.3021 30.9929 67.2011 30.943 67.4375C29.9707 71.956 31.3781 76.7442 34.6634 79.9962C35.517 80.8409 36.4815 81.5712 37.5259 82.1639C37.7357 82.2838 37.9255 81.9586 37.7146 81.8398Z" fill="#F3E1D1"/>
<path d="M39.2533 80.0347C36.6761 78.8283 34.6583 76.5452 33.7315 73.8592C33.4662 73.09 33.2897 72.2908 33.2131 71.4806C33.1909 71.242 32.8147 71.2397 32.8369 71.4806C33.1121 74.4219 34.6361 77.1956 36.9436 79.038C37.5973 79.5597 38.3055 80.0048 39.0635 80.36C39.2822 80.461 39.4731 80.138 39.2533 80.0347Z" fill="#F3E1D1"/>
<path d="M51.6106 35.8025C50.5639 33.1354 49.0256 30.6658 47.0732 28.5669C45.9711 27.3816 44.7379 26.3227 43.3994 25.4137C43.1985 25.2771 43.0109 25.6024 43.2096 25.7378C45.546 27.3261 47.5427 29.3894 49.0933 31.7491C50.6394 34.1032 51.746 36.7415 52.3231 39.4985C52.6506 41.0624 52.8004 42.6596 52.7682 44.2568C52.7638 44.4987 53.1389 44.4987 53.1445 44.2568C53.2022 41.3721 52.6639 38.4863 51.6106 35.8025Z" fill="#F3E1D1"/>
<path d="M49.6885 36.4482C48.1346 34.2716 46.0446 32.5013 43.6472 31.317C42.3053 30.6544 40.878 30.1738 39.4073 29.8963C39.1709 29.8519 39.0699 30.2138 39.3074 30.2582C41.858 30.7377 44.2865 31.8365 46.3221 33.4481C48.3766 35.0752 49.9982 37.2029 51.0437 39.6048C51.6397 40.9733 52.0426 42.4307 52.2347 43.9113C52.2657 44.1477 52.6409 44.151 52.6109 43.9113C52.2635 41.232 51.2601 38.6503 49.6885 36.4482Z" fill="#F3E1D1"/>
<path d="M51.5879 43.3709C50.8442 41.1033 49.5057 39.0433 47.7342 37.4428C45.8507 35.7413 43.4988 34.6003 41.0003 34.1574C39.5641 33.9032 38.1024 33.8777 36.6595 34.0797C36.4208 34.113 36.5229 34.4748 36.7593 34.4415C39.2567 34.093 41.855 34.476 44.1481 35.5248C46.2836 36.5016 48.1327 38.0555 49.4779 39.9801C50.2271 41.0522 50.8187 42.2276 51.2272 43.4708C51.3004 43.6994 51.6633 43.6017 51.5879 43.3709Z" fill="#F3E1D1"/>
<path d="M45.4353 37.9838C43.0268 36.6618 40.2043 36.209 37.5027 36.7018C37.2652 36.7451 37.3662 37.1069 37.6026 37.0636C40.2009 36.5886 42.9313 37.0359 45.2455 38.3078C45.4575 38.4244 45.6473 38.1003 45.4353 37.9838Z" fill="#F3E1D1"/>
<path d="M41.9966 38.1973C40.3506 37.912 38.6568 38.0663 37.0952 38.6646C36.8721 38.75 36.9687 39.113 37.1951 39.0264C38.6913 38.4537 40.3173 38.2861 41.8967 38.5591C42.1331 38.6002 42.2352 38.2384 41.9966 38.1973Z" fill="#F3E1D1"/>
<path d="M28.0152 48.5737C26.3059 49.2919 24.409 49.4817 22.5943 49.0965C22.3579 49.0466 22.258 49.4084 22.4944 49.4584C24.3724 49.8568 26.3436 49.6803 28.1151 48.9356C28.3348 48.8446 28.2383 48.4805 28.0152 48.5737Z" fill="#F3E1D1"/>
<path d="M26.9458 47.608C25.9591 47.9698 24.9113 48.0975 23.8669 47.9865C23.6271 47.9609 23.6283 48.3372 23.8669 48.3627C24.9402 48.4771 26.0323 48.3428 27.0457 47.9709C27.271 47.8888 27.1733 47.5247 26.9458 47.608Z" fill="#F3E1D1"/>
<path d="M28.1781 60.5358C26.198 62.446 23.7117 63.8001 21.0368 64.4417C20.2777 64.6237 19.5052 64.7469 18.7271 64.8101C18.4874 64.8301 18.4862 65.2053 18.7271 65.1864C21.5452 64.9567 24.2867 63.9655 26.5953 62.3317C27.2491 61.8689 27.8662 61.3572 28.4433 60.8022C28.6176 60.6335 28.3523 60.3682 28.1781 60.5358Z" fill="#F3E1D1"/>
<path d="M27.6273 64.3702C26.0613 66.5134 23.9924 68.2604 21.626 69.4603C21.4107 69.569 21.6005 69.8942 21.8158 69.7844C24.2421 68.5546 26.3476 66.7543 27.9514 64.56C28.0946 64.3646 27.7683 64.177 27.6273 64.3702Z" fill="#F3E1D1"/>
<path d="M53.9261 75.6068H53.9228C53.9195 75.6068 53.9195 75.6068 53.915 75.6068C53.7275 75.6034 53.5388 75.6034 53.3512 75.599C53.1936 75.5279 53.2202 75.2383 53.43 75.2383C53.5921 75.2349 53.7574 75.2349 53.9184 75.2305H53.9339C54.1626 75.2471 54.1592 75.6068 53.9261 75.6068Z" fill="#CC9669"/>
<path d="M53.9352 56.2526C53.8941 56.3014 53.8297 56.3314 53.7509 56.3092C53.732 56.3059 53.7098 56.2981 53.691 56.2936C53.5933 56.2715 53.499 56.2526 53.4057 56.2448C53.338 56.1505 53.3536 55.9929 53.5001 55.9551C53.5645 55.9396 53.6244 55.9252 53.6877 55.9141C53.6877 55.9141 53.6877 55.9141 53.691 55.9141C53.7431 55.9218 53.7964 55.9329 53.8486 55.9474C54.0073 55.9895 54.014 56.1582 53.9352 56.2526Z" fill="#CC9669"/>
<path d="M46.2279 63.2081C46.1868 63.1293 46.1336 63.0505 46.0892 62.9716C46.037 62.945 45.9948 62.8928 45.9915 62.8174C45.9915 62.814 45.9915 62.814 45.9915 62.8096C45.5486 62.0737 44.9992 61.4078 44.3566 60.8328C43.4398 61.693 42.1057 62.077 40.9069 61.5809C39.7837 61.1114 39.0845 59.9016 39.3586 58.7107C38.3552 58.4476 37.3108 58.4665 36.3152 58.7628C36.1421 58.8194 35.9922 58.5753 36.1354 58.4509C36.9135 57.7561 37.8602 57.2744 38.878 57.0458C40.6705 56.6395 42.5607 57.0236 44.007 58.169C45.2656 59.1724 46.1069 60.6641 46.3178 62.2569C46.4122 62.5232 46.502 62.7907 46.5731 63.0649C46.6264 63.268 46.3289 63.4001 46.2279 63.2081Z" fill="#CC9669"/>
<path d="M70.2243 45.7084C70.252 45.6818 70.2909 45.6674 70.3331 45.6607C70.2343 45.542 70.1311 45.4265 70.0356 45.3056C69.888 45.1169 70.1521 44.8494 70.3009 45.0403C73.059 48.5576 77.3278 50.7875 81.773 51.1526C83.025 51.2558 84.2892 51.2125 85.529 51.0105C85.7654 50.9717 85.8675 51.3346 85.6289 51.3724C81.1204 52.1049 76.3899 50.8285 72.7882 48.0371C72.0324 47.451 71.332 46.7995 70.6949 46.0892C72.5662 50.3512 76.3455 53.6011 80.8529 54.792C82.2081 55.1505 83.6044 55.3215 85.0062 55.3048C85.2482 55.3015 85.2482 55.6777 85.0062 55.6811C79.9694 55.7421 75.1368 53.3491 72.1311 49.3112C71.6195 48.6242 71.1755 47.8939 70.7837 47.1358C71.6683 49.8252 73.0568 52.3458 74.8704 54.5223C76.9893 57.0652 79.6686 59.1063 82.6709 60.497C84.378 61.2873 86.1838 61.8578 88.0341 62.2008C88.2716 62.2452 88.1706 62.607 87.9342 62.5626C84.5989 61.9455 81.4078 60.5736 78.663 58.5791C75.9592 56.6145 73.7139 54.0539 72.1045 51.1249C71.2066 49.4888 70.5095 47.744 70.0345 45.9393C69.9979 45.7995 70.1133 45.7096 70.2243 45.7084Z" fill="#F3E1D1"/>
<path d="M73.6205 82.1851C75.5184 80.3959 76.8814 78.0751 77.5318 75.55C78.2 72.9528 78.059 70.198 77.18 67.6674C76.6805 66.2322 75.9435 64.877 75.0023 63.6838C74.8536 63.4963 75.1178 63.2288 75.2676 63.4186C76.9846 65.5951 78.0368 68.2534 78.2788 71.0149C78.5152 73.7153 77.9259 76.4501 76.6494 78.8376C75.9313 80.1806 74.9957 81.4059 73.8869 82.4515C73.7104 82.6169 73.444 82.3516 73.6205 82.1851Z" fill="#F3E1D1"/>
<path d="M69.6303 81.8437C73.3907 79.7071 75.9247 75.7891 76.2898 71.4737C76.4008 70.1585 76.3187 68.8321 76.0401 67.5413C75.989 67.306 76.352 67.205 76.4019 67.4414C77.3742 71.9599 75.9668 76.748 72.6815 80.0001C71.8279 80.8448 70.8634 81.5751 69.819 82.1678C69.6103 82.2888 69.4205 81.9636 69.6303 81.8437Z" fill="#F3E1D1"/>
<path d="M68.0967 80.0426C70.674 78.8361 72.6907 76.553 73.6186 73.867C73.8838 73.0978 74.0603 72.2986 74.1358 71.4884C74.158 71.2498 74.5343 71.2475 74.5121 71.4884C74.2368 74.4297 72.7129 77.2034 70.4053 79.0458C69.7516 79.5675 69.0435 80.0126 68.2854 80.3678C68.069 80.4688 67.8781 80.1458 68.0967 80.0426Z" fill="#F3E1D1"/>
<path d="M56.1475 35.8084C57.1941 33.1412 58.7325 30.6717 60.6848 28.5728C61.787 27.3874 63.0201 26.3285 64.3587 25.4195C64.5596 25.283 64.7471 25.6082 64.5485 25.7436C62.2121 27.3319 60.2153 29.3953 58.6648 31.755C57.1187 34.1091 56.0121 36.7474 55.4349 39.5044C55.1075 41.0683 54.9576 42.6655 54.9898 44.2626C54.9943 44.5046 54.6191 44.5046 54.6136 44.2626C54.5559 41.378 55.0942 38.4922 56.1475 35.8084Z" fill="#F3E1D1"/>
<path d="M58.0648 36.4541C59.6186 34.2775 61.7086 32.5072 64.106 31.3229C65.4479 30.6603 66.8753 30.1797 68.3459 29.9022C68.5824 29.8578 68.6834 30.2196 68.4458 30.264C65.8952 30.7435 63.4667 31.8423 61.4311 33.4539C59.3767 35.0811 57.7551 37.2088 56.7095 39.6107C56.1135 40.9792 55.7106 42.4365 55.5186 43.9172C55.4875 44.1536 55.1124 44.1569 55.1423 43.9172C55.4886 41.2378 56.492 38.6561 58.0648 36.4541Z" fill="#F3E1D1"/>
<path d="M56.1665 43.3787C56.9102 41.1111 58.2487 39.0511 60.0202 37.4506C61.9037 35.7491 64.2556 34.6081 66.754 34.1652C68.1903 33.9111 69.652 33.8855 71.0949 34.0875C71.3336 34.1208 71.2315 34.4827 70.995 34.4494C68.4977 34.1009 65.8994 34.4838 63.6063 35.5327C61.4708 36.5094 59.6217 38.0633 58.2765 39.9879C57.5273 41.06 56.9357 42.2355 56.5272 43.4786C56.454 43.7072 56.091 43.6095 56.1665 43.3787Z" fill="#F3E1D1"/>
<path d="M62.3192 37.9896C64.7277 36.6677 67.5502 36.2149 70.2518 36.7077C70.4893 36.7509 70.3883 37.1128 70.1519 37.0695C67.5536 36.5945 64.8232 37.0418 62.509 38.3137C62.297 38.4303 62.1072 38.1062 62.3192 37.9896Z" fill="#F3E1D1"/>
<path d="M65.761 38.2051C67.407 37.9199 69.1008 38.0741 70.6624 38.6724C70.8855 38.7578 70.789 39.1208 70.5625 39.0342C69.0664 38.4615 67.4403 38.2939 65.8609 38.5669C65.6245 38.608 65.5224 38.2462 65.761 38.2051Z" fill="#F3E1D1"/>
<path d="M79.3255 48.5816C81.0348 49.2997 82.9316 49.4895 84.7464 49.1044C84.9828 49.0544 85.0827 49.4162 84.8462 49.4662C82.9683 49.8647 80.997 49.6882 79.2256 48.9434C79.0059 48.8513 79.1024 48.4884 79.3255 48.5816Z" fill="#F3E1D1"/>
<path d="M80.3995 47.6158C81.3862 47.9777 82.434 48.1053 83.4784 47.9943C83.7181 47.9688 83.717 48.3451 83.4784 48.3706C82.4051 48.4849 81.3129 48.3506 80.2996 47.9788C80.0743 47.8955 80.172 47.5326 80.3995 47.6158Z" fill="#F3E1D1"/>
<path d="M79.1736 60.5417C81.1537 62.4519 83.64 63.806 86.3149 64.4475C87.074 64.6295 87.8465 64.7527 88.6246 64.816C88.8643 64.836 88.8655 65.2111 88.6246 65.1923C85.8065 64.9625 83.065 63.9713 80.7564 62.3375C80.1026 61.8747 79.4855 61.363 78.9084 60.8081C78.7341 60.6394 79.0005 60.3741 79.1736 60.5417Z" fill="#F3E1D1"/>
<path d="M79.7191 64.376C81.2852 66.5193 83.3541 68.2663 85.7204 69.4661C85.9358 69.5749 85.746 69.9001 85.5306 69.7902C83.1044 68.5604 80.9988 66.7601 79.395 64.5658C79.2518 64.3705 79.577 64.1829 79.7191 64.376Z" fill="#F3E1D1"/>
<path d="M53.9261 75.6068H53.9228C53.9195 75.6068 53.9195 75.6068 53.915 75.6068C53.753 75.6101 53.5921 75.6101 53.43 75.6145C53.4 75.6145 53.3734 75.6067 53.3512 75.599C53.1936 75.5279 53.2202 75.2383 53.43 75.2383C53.5921 75.2349 53.7574 75.2349 53.9184 75.2305H53.9339C54.1626 75.2471 54.1592 75.6068 53.9261 75.6068Z" fill="#CC9669"/>
<path d="M42.8608 71.2266C43.1726 74.886 41.6887 78.3467 41.238 81.9273C41.2114 82.1638 40.8363 82.1682 40.8618 81.9273C40.8773 81.833 40.8918 81.7398 40.9029 81.6454C40.6398 81.6232 40.4112 81.4123 40.2791 81.1682C40.0504 80.7508 39.9672 80.2358 39.9483 79.7663C39.8773 77.8051 41.0827 76.1214 41.6243 74.3066C42.1804 72.4431 42.2514 70.4474 41.8385 68.5506C41.7863 68.3064 42.1093 68.2309 42.1992 68.4496C42.5711 69.3331 42.7775 70.2721 42.8608 71.2266Z" fill="#CC9669"/>
<path d="M62.5535 90.5427C59.1306 90.7602 56.7975 87.6536 53.6598 86.891C50.5331 87.6691 48.2045 90.7536 44.7926 90.5394C44.5862 90.5238 44.5329 90.2308 44.7438 90.1675C45.6417 89.9078 46.5019 89.5471 47.3143 89.082C50.2601 87.3983 52.3301 84.4759 52.9727 81.1505C52.4355 80.1283 51.3567 79.4823 50.3089 79.0761C49.1513 78.6332 47.927 78.3735 46.8149 77.8175C46.3232 77.5699 45.7627 77.258 45.5074 76.743C45.312 76.3412 45.3342 75.8451 45.6317 75.5221C45.2521 75.1958 45.0423 74.6886 45.0113 74.1736C44.9846 73.7041 45.0901 73.2379 45.2099 72.7873C45.3342 72.3256 45.4652 71.8627 45.5929 71.401C46.5396 67.9969 47.4831 64.5894 48.4331 61.1853C48.8238 59.7801 49.2634 58.2917 50.2778 57.1951C51.1347 56.2672 52.4233 55.6579 53.6853 55.9176C53.6209 55.9287 53.561 55.9442 53.4977 55.9587C53.3512 55.9964 53.3357 56.154 53.4034 56.2484C52.0548 56.083 50.7806 56.9887 50.0636 58.082C49.2822 59.2807 48.9548 60.708 48.5752 62.0688C48.139 63.6393 47.7039 65.2132 47.2677 66.7837C46.8315 68.3432 46.3998 69.8982 45.968 71.4576C45.8548 71.8594 45.7427 72.2656 45.6339 72.6674C45.5252 73.0581 45.4119 73.4532 45.3864 73.8584C45.3564 74.3811 45.5107 74.986 45.9458 75.2979C46.382 75.0915 46.9336 75.1481 47.3965 75.1547C48.1102 75.1625 48.8238 75.1703 49.5386 75.1814C51.0004 75.1969 52.4544 75.2147 53.9162 75.2336C53.7541 75.2369 53.5887 75.2369 53.4278 75.2413C53.2169 75.2413 53.1914 75.531 53.349 75.6021C53.3712 75.6098 53.3978 75.6176 53.4278 75.6176C53.5898 75.6143 53.7508 75.6142 53.9128 75.6098C53.9162 75.6098 53.9162 75.6098 53.9206 75.6098H53.9239C54.157 75.6098 54.1603 75.2491 53.9317 75.2336C55.2247 75.218 56.5167 75.2003 57.8097 75.1847C58.5234 75.1769 59.2371 75.1692 59.9519 75.1581C60.4136 75.1548 60.9664 75.0982 61.4026 75.3013C61.8421 74.9927 61.9919 74.3878 61.962 73.8661C61.9353 73.4599 61.8232 73.0659 61.7178 72.6752C61.6046 72.269 61.4925 71.8672 61.3793 71.462C60.9475 69.907 60.5146 68.3476 60.0829 66.7915C59.6433 65.2176 59.2071 63.6471 58.7721 62.0766C58.3925 60.7169 58.0661 59.2884 57.2836 58.0897C56.5655 56.9887 55.2847 56.083 53.9361 56.2561C54.0149 56.1618 54.0072 55.9931 53.8496 55.952C53.7974 55.9365 53.7441 55.9254 53.6919 55.9187C54.9473 55.6745 56.2203 56.2828 57.0694 57.204C58.0839 58.3017 58.5234 59.7857 58.9141 61.1942C59.8642 64.5983 60.8076 68.0024 61.7544 71.411C61.882 71.8727 62.0141 72.3311 62.1373 72.7973C62.2572 73.2446 62.3626 73.7141 62.336 74.1836C62.306 74.6941 62.0996 75.2013 61.7156 75.5321C62.0119 75.8551 62.0352 76.3512 61.8399 76.753C61.5846 77.268 61.0241 77.5799 60.5324 77.8274C59.4202 78.3835 58.1949 78.6388 57.0384 79.0861C55.9906 79.4923 54.9117 80.1383 54.3745 81.1561C55.0205 84.4814 57.0916 87.4083 60.0329 89.092C60.8443 89.5582 61.7045 89.9189 62.6035 90.1775C62.8133 90.2341 62.7644 90.5316 62.5535 90.5427Z" fill="#CC9669"/>
<path d="M53.9363 56.2526C53.8541 56.2603 53.7742 56.2748 53.6921 56.2936C53.6621 56.3014 53.6277 56.3092 53.5978 56.3159C53.5112 56.3381 53.4435 56.3003 53.4057 56.2448C53.338 56.1505 53.3536 55.9929 53.5001 55.9551C53.5645 55.9396 53.6244 55.9252 53.6877 55.9141C53.6877 55.9141 53.6877 55.9141 53.691 55.9141C53.7432 55.9218 53.7964 55.9329 53.8486 55.9474C54.0084 55.9895 54.0151 56.1582 53.9363 56.2526Z" fill="#CC9669"/>
<path d="M67.4004 79.775C67.3816 80.2445 67.2994 80.7562 67.073 81.1724C66.9376 81.4199 66.709 81.6308 66.4459 81.6497C66.457 81.7473 66.4759 81.8372 66.487 81.9349C66.5169 82.1713 66.1418 82.1713 66.1107 81.9349C65.6601 78.3543 64.1761 74.8936 64.488 71.2342C64.5713 70.2796 64.7777 69.3406 65.1495 68.4571C65.2394 68.2396 65.5624 68.314 65.5103 68.5548C65.0974 70.4561 65.1684 72.4506 65.7245 74.3153C66.2694 76.13 67.4715 77.8138 67.4004 79.775Z" fill="#CC9669"/>
<path d="M71.0376 58.7698C70.042 58.469 68.9976 58.4546 67.9976 58.7132C68.2717 59.9086 67.5691 61.1184 66.4459 61.5835C65.2472 62.0829 63.9131 61.7 62.9963 60.8354C62.3536 61.4103 61.8053 62.0752 61.3614 62.8155C61.3614 62.8155 61.3614 62.8188 61.3614 62.8233C61.358 62.8987 61.3159 62.9476 61.2637 62.9775C61.2182 63.0563 61.166 63.1318 61.125 63.2139C61.024 63.406 60.7265 63.2739 60.7798 63.0708C60.8508 62.7966 60.9418 62.5258 61.035 62.2627C61.2459 60.67 62.0873 59.1738 63.3459 58.1749C64.7921 57.0284 66.6857 56.6454 68.4748 57.0472C69.4926 57.2759 70.4394 57.7609 71.2219 58.4557C71.3606 58.5822 71.2141 58.8231 71.0376 58.7698Z" fill="#CC9669"/>
<path d="M92.3412 87.6846C89.6819 86.9088 86.7595 87.1718 84.2699 88.3872C84.0379 88.4982 83.8148 88.6225 83.5929 88.7512C83.8315 88.4848 84.069 88.2196 84.2954 87.9443C84.4286 87.7934 84.5563 87.638 84.6795 87.4804C84.7161 87.4704 84.7549 87.4526 84.7805 87.4249C86.0857 86.0164 88.0592 85.5136 89.4843 84.2472C90.2157 83.5923 90.8295 82.812 91.2846 81.9397C91.723 81.0939 91.9694 80.1738 92.2114 79.2537C92.4811 78.2303 92.7586 77.1903 93.3513 76.3024C93.4867 76.1004 93.1992 75.8695 93.0538 76.0682C91.9672 77.5044 90.2202 78.1504 88.7451 79.0927C87.9726 79.5844 87.2745 80.1782 86.7428 80.933C86.1601 81.7721 85.7727 82.731 85.4675 83.7011C85.2078 84.5335 84.9991 85.3815 84.7472 86.2162C84.7372 86.2472 84.7272 86.2783 84.7183 86.3083C84.6384 86.5691 84.554 86.83 84.463 87.0863C84.4542 87.1041 84.4542 87.123 84.453 87.1419C84.3076 87.3261 84.1567 87.5114 84.0035 87.6946C83.5474 88.2373 83.0656 88.7646 82.5695 89.2718C82.5862 89.2318 82.605 89.1897 82.6228 89.1497C82.6816 89.032 82.746 88.9189 82.7826 88.8367C83.0956 88.133 83.3986 87.4215 83.6528 86.6945C84.1445 85.2783 84.3953 83.8065 84.1767 82.3126C83.9347 80.671 83.2521 79.1349 82.5762 77.6343C82.484 77.4323 82.2077 77.5133 82.2143 77.7264C82.2643 79.459 81.0778 80.913 80.4973 82.4669C80.2098 83.2438 80.0666 84.0618 80.2165 84.8843C80.3608 85.6879 80.7115 86.4315 81.0456 87.1718C81.2842 87.6968 81.524 88.2373 81.6583 88.7967C81.7393 89.1353 81.7859 89.4805 81.7715 89.8301C81.7693 89.9011 81.7992 89.9533 81.8392 89.9899C81.5706 90.2463 81.2953 90.4972 81.0167 90.7413L81.2642 91.0277C81.5384 90.7946 81.8092 90.5493 82.0745 90.3051C82.15 90.2341 82.2221 90.1608 82.2976 90.0898C82.4619 90.2485 82.6938 90.3584 82.8836 90.4494C84.2388 91.1054 85.8249 90.8679 87.1735 90.3362C88.9194 89.6558 90.4566 88.4915 92.2957 88.0476C92.45 88.0065 92.5455 87.7445 92.3412 87.6846Z" fill="#F3E1D1"/>
<path d="M91.165 94.1939C88.4613 92.579 85.51 91.1195 82.2801 91.1983C81.814 91.2083 81.3533 91.2604 80.8994 91.3414C81.0226 91.2404 81.1425 91.1372 81.2612 91.0285L81.0137 90.7421C80.7296 90.9863 80.4454 91.226 80.1569 91.4569C80.0725 90.8897 80.29 90.2693 80.35 89.7032C80.4898 88.2936 80.3233 86.8607 79.8849 85.5122C79.381 83.9827 78.5231 82.5842 77.3754 81.4554C77.2533 81.3355 77.0513 81.4754 77.0691 81.6241C77.2544 83.1303 76.9003 84.622 76.8426 86.1237C76.786 87.6121 77.119 89.0461 77.977 90.2859C78.4132 90.9141 78.9648 91.458 79.5941 91.8909C79.159 92.2238 78.714 92.5491 78.2567 92.8554C77.5241 93.3449 76.7683 93.7966 75.9902 94.2173C77.1135 91.8209 77.1423 88.9884 76.0169 86.5744C75.6761 85.8429 75.2377 85.1559 74.7182 84.5399C74.6072 84.4045 74.332 84.4721 74.3775 84.6719C74.6805 86.0582 74.0723 87.4079 73.7415 88.7298C73.6139 89.2415 73.5406 89.7576 73.5273 90.2781C73.504 91.1417 73.6416 92.003 73.948 92.8277C74.2043 93.5069 74.5773 94.1429 75.0357 94.7056C74.1178 95.1551 73.1743 95.5514 72.2109 95.8932L72.3341 96.2506C72.5694 96.1663 72.8114 96.0853 73.0434 95.9931C73.8325 95.6879 74.6039 95.3394 75.3631 94.9631C76.5718 96.1607 77.9969 97.2429 79.7107 97.5481C81.1758 97.8134 82.6608 97.5193 84.1248 97.4171C84.9661 97.3594 85.8097 97.3728 86.631 97.5847C86.8175 97.6358 86.9196 97.3528 86.7742 97.2495C84.2369 95.3927 81.249 93.9498 78.0347 94.0929C77.5841 94.114 77.1401 94.1706 76.6972 94.2605C77.301 93.9154 77.8893 93.5535 78.4642 93.1673C78.9792 92.8254 79.4787 92.4658 79.9715 92.0907C80.3344 92.7577 81.0215 93.2882 81.6552 93.6712C83.0049 94.4814 84.5299 94.6446 86.0738 94.5769C87.7198 94.5014 89.3836 94.2139 91.0219 94.528C91.1983 94.5624 91.3304 94.2905 91.165 94.1939Z" fill="#F3E1D1"/>
<path d="M80.5164 101.03C79.2467 100.566 77.8726 100.681 76.5451 100.597C75.272 100.517 74.07 100.193 73.1044 99.3126C72.5627 98.8187 72.1187 98.2294 71.7258 97.6067C71.5272 97.2959 71.3396 96.9751 71.1587 96.6544C71.1553 96.6522 71.1553 96.6466 71.152 96.6444C70.4073 96.8741 69.6592 97.0706 68.8989 97.2404C71.293 97.802 72.8957 99.9941 74.2298 101.94C74.3308 102.087 74.1799 102.311 74.0023 102.228C73.293 101.898 72.5894 101.566 71.8834 101.237C71.2142 100.923 70.5316 100.627 69.8978 100.249C68.8778 99.64 67.9455 98.6844 67.8511 97.4435C66.9598 97.6011 66.0541 97.7177 65.1496 97.7687C64.2139 97.8242 63.2749 97.7843 62.3803 97.4813C62.1506 97.4058 62.3004 97.0561 62.5279 97.1338C63.5491 97.479 64.6379 97.4435 65.6979 97.3458C66.6835 97.2582 67.6646 97.1139 68.6347 96.9119C69.3695 96.7565 70.0943 96.57 70.8113 96.358C70.1842 95.0639 69.9733 93.5721 70.2508 92.1603C70.566 90.5276 71.5105 89.057 72.838 88.0614C72.9545 87.9748 73.1177 88.0547 73.1399 88.1923C73.2387 88.8827 73.2664 89.5697 73.2331 90.2568C73.1365 92.3168 72.4817 94.3391 71.4828 96.1482C71.7292 96.0672 71.9734 95.984 72.2131 95.8941L72.3363 96.2515C72.7037 96.2803 73.0711 96.3225 73.4351 96.388C76.2976 96.8941 78.9448 98.4502 80.7417 100.741C80.8649 100.893 80.6829 101.087 80.5164 101.03Z" fill="#F3E1D1"/>
<path d="M15.9034 89.2194C17.7426 89.6634 19.2798 90.8266 21.0257 91.5081C22.3743 92.0386 23.9604 92.2773 25.3156 91.6213C25.5042 91.5303 25.7362 91.4204 25.9016 91.2617C25.9771 91.3327 26.0492 91.406 26.1247 91.477C26.39 91.7223 26.6597 91.9676 26.9349 92.1996L27.1825 91.9132C26.9039 91.669 26.6286 91.4182 26.36 91.1618C26.4 91.1263 26.4299 91.073 26.4277 91.002C26.4133 90.6523 26.4599 90.3071 26.5409 89.9686C26.6752 89.4092 26.915 88.8687 27.1536 88.3437C27.4877 87.6034 27.8384 86.8597 27.9827 86.0562C28.1325 85.2348 27.9894 84.4157 27.7019 83.6387C27.1214 82.0849 25.9338 80.6309 25.9848 78.8983C25.9915 78.6863 25.7151 78.6041 25.623 78.8061C24.9471 80.3068 24.2645 81.8429 24.0225 83.4845C23.8039 84.9784 24.0547 86.4491 24.5464 87.8664C24.7995 88.5934 25.1036 89.3038 25.4166 90.0086C25.4521 90.0907 25.5176 90.2039 25.5764 90.3216C25.593 90.3615 25.6119 90.4037 25.6297 90.4437C25.1346 89.9364 24.6518 89.4092 24.1957 88.8665C24.0425 88.6833 23.8915 88.498 23.7461 88.3137C23.7461 88.2949 23.745 88.276 23.7361 88.2582C23.6451 88.0018 23.5608 87.741 23.4809 87.4802C23.4709 87.4491 23.4609 87.418 23.452 87.388C23.2012 86.5534 22.9914 85.7054 22.7317 84.873C22.4264 83.9029 22.0391 82.9439 21.4564 82.1048C20.9258 81.3501 20.2277 80.7563 19.4541 80.2646C17.979 79.3223 16.232 78.6763 15.1454 77.2401C14.9989 77.0414 14.7125 77.2723 14.8479 77.4743C15.4406 78.3633 15.7192 79.4033 15.9878 80.4255C16.2286 81.3457 16.4751 82.2658 16.9146 83.1115C17.3696 83.9839 17.9834 84.7642 18.7149 85.4191C20.14 86.6855 22.1123 87.1883 23.4187 88.5968C23.4453 88.6245 23.4831 88.6423 23.5197 88.6523C23.644 88.8099 23.7706 88.9652 23.9037 89.1162C24.1302 89.3915 24.3677 89.6578 24.6063 89.9231C24.3843 89.7943 24.1612 89.6701 23.9293 89.5591C21.4397 88.3437 18.5184 88.0817 15.8579 88.8565C15.6504 88.9164 15.7458 89.1784 15.9034 89.2194Z" fill="#F3E1D1"/>
<path d="M17.172 95.7004C18.8102 95.3863 20.474 95.6737 22.12 95.7492C23.6639 95.818 25.19 95.6538 26.5386 94.8435C27.1724 94.4606 27.8594 93.9301 28.2223 93.263C28.7152 93.6382 29.2146 93.9967 29.7296 94.3396C30.3046 94.727 30.8928 95.0888 31.4966 95.4329C31.0538 95.3419 30.6098 95.2864 30.1592 95.2653C26.9448 95.1221 23.9569 96.565 21.4196 98.4219C21.2754 98.5263 21.3764 98.8082 21.5628 98.7571C22.3842 98.5451 23.2277 98.5318 24.069 98.5895C25.533 98.6916 27.0181 98.9846 28.4832 98.7205C30.1958 98.4152 31.6209 97.3331 32.8307 96.1355C33.5899 96.5129 34.3613 96.8614 35.1505 97.1655C35.3824 97.2576 35.6244 97.3375 35.8597 97.423L35.9829 97.0656C35.0195 96.7237 34.0761 96.3275 33.1582 95.878C33.6166 95.3142 33.9895 94.6793 34.2459 94C34.5522 93.1753 34.6898 92.3151 34.6665 91.4505C34.6532 90.9311 34.58 90.4139 34.4523 89.9022C34.1216 88.5803 33.5133 87.2306 33.8163 85.8443C33.8619 85.6445 33.5866 85.5768 33.4756 85.7122C32.9562 86.3282 32.5177 87.0153 32.177 87.7467C31.0515 90.1608 31.0804 92.9933 32.2036 95.3896C31.4256 94.9701 30.6697 94.5183 29.9372 94.0277C29.4799 93.7225 29.0359 93.3962 28.5997 93.0632C29.229 92.6315 29.7796 92.0865 30.2169 91.4583C31.0748 90.2196 31.4078 88.7856 31.3512 87.2961C31.2935 85.7932 30.9394 84.3015 31.1248 82.7965C31.1425 82.6477 30.9405 82.5068 30.8184 82.6278C29.6708 83.7565 28.8128 85.155 28.3089 86.6845C27.8694 88.0331 27.704 89.466 27.8439 90.8756C27.9027 91.4416 28.1202 92.061 28.037 92.6293C27.7484 92.3973 27.4643 92.1586 27.1801 91.9145L26.9326 92.2008C27.0514 92.3096 27.1724 92.4128 27.2945 92.5138C26.8394 92.4328 26.3788 92.3806 25.9137 92.3707C22.6838 92.293 19.7315 93.7514 17.0288 95.3663C16.8634 95.4607 16.9955 95.7326 17.172 95.7004Z" fill="#F3E1D1"/>
<path d="M27.6798 102.202C28.9496 101.738 30.3237 101.853 31.6511 101.769C32.9242 101.689 34.1263 101.365 35.0919 100.484C35.6335 99.9906 36.0775 99.4012 36.4704 98.7786C36.6691 98.4678 36.8567 98.147 37.0376 97.8262C37.0409 97.824 37.0409 97.8185 37.0442 97.8163C37.789 98.046 38.5371 98.2424 39.2974 98.4123C36.9033 98.9739 35.2994 101.166 33.9664 103.112C33.8654 103.259 34.0164 103.482 34.194 103.4C34.9032 103.07 35.6069 102.738 36.3128 102.409C36.9821 102.095 37.6647 101.799 38.2985 101.421C39.3185 100.812 40.2508 99.8563 40.3451 98.6154C41.2364 98.773 42.1421 98.8895 43.0467 98.9406C43.9824 98.9961 44.9213 98.9561 45.8159 98.6531C46.0457 98.5777 45.8959 98.228 45.6683 98.3057C44.6472 98.6509 43.5584 98.6154 42.4984 98.5177C41.5128 98.43 40.5316 98.2857 39.5615 98.0837C38.8268 97.9284 38.102 97.7419 37.385 97.5299C38.0121 96.2357 38.223 94.744 37.9455 93.3322C37.6303 91.6995 36.6857 90.2288 35.3583 89.2332C35.2417 89.1467 35.0786 89.2266 35.0564 89.3642C34.9576 90.0546 34.9298 90.7416 34.9631 91.4287C35.0597 93.4887 35.7146 95.5109 36.7135 97.3201C36.4671 97.2391 36.2229 97.1559 35.9832 97.066L35.86 97.4233C35.4926 97.4522 35.1252 97.4944 34.7611 97.5598C31.8987 98.066 29.2515 99.6221 27.4545 101.913C27.3313 102.065 27.5134 102.26 27.6798 102.202Z" fill="#F3E1D1"/>
<path d="M54.6049 21.2333C58.6065 21.2333 61.8505 17.9894 61.8505 13.9877C61.8505 9.98613 58.6065 6.74219 54.6049 6.74219C50.6033 6.74219 47.3594 9.98613 47.3594 13.9877C47.3594 17.9894 50.6033 21.2333 54.6049 21.2333Z" fill="#F3E1D1"/>
<path d="M56.3708 3.81923C56.2542 4.28983 56.04 4.7316 55.9113 5.19887C55.8258 5.51298 55.7803 5.8515 55.828 6.17115C55.4318 6.11122 55.0267 6.08014 54.6138 6.08014C53.9778 6.08014 53.3596 6.15451 52.7691 6.29658C52.6947 5.62952 52.9977 4.92804 53.394 4.3631C53.8757 3.67827 54.5061 3.09445 54.9001 2.35302C55.2908 1.61493 55.3907 0.616006 54.8236 0C56.0711 0.775834 56.7237 2.39631 56.3708 3.81923Z" fill="#F3E1D1"/>
<path d="M52.8536 24.1805C52.9701 23.7099 53.1843 23.2681 53.3131 22.8008C53.3985 22.4867 53.444 22.1482 53.3963 21.8286C53.7926 21.8885 54.1977 21.9196 54.6106 21.9196C55.2466 21.9196 55.8648 21.8452 56.4553 21.7031C56.5296 22.3702 56.2266 23.0717 55.8304 23.6366C55.3487 24.3214 54.7182 24.9053 54.3242 25.6467C53.9335 26.3848 53.8336 27.3837 54.4008 27.9997C53.1521 27.2228 52.4995 25.6034 52.8536 24.1805Z" fill="#F3E1D1"/>
<path d="M44.4286 12.2398C44.8992 12.3563 45.341 12.5706 45.8082 12.6993C46.1224 12.7848 46.4609 12.8303 46.7805 12.7825C46.7206 13.1788 46.6895 13.5839 46.6895 13.9968C46.6895 14.6328 46.7639 15.251 46.906 15.8415C46.2389 15.9158 45.5374 15.6128 44.9725 15.2166C44.2876 14.7349 43.7038 14.1045 42.9624 13.7104C42.2243 13.3197 41.2254 13.2198 40.6094 13.787C41.3863 12.5395 43.0057 11.8868 44.4286 12.2398Z" fill="#F3E1D1"/>
<path d="M64.7898 15.7575C64.3192 15.641 63.8775 15.4268 63.4102 15.298C63.0961 15.2125 62.7576 15.167 62.4379 15.2147C62.4979 14.8185 62.5289 14.4134 62.5289 14.0005C62.5289 13.3645 62.4546 12.7463 62.3125 12.1558C62.9796 12.0814 63.681 12.3845 64.246 12.7807C64.9308 13.2624 65.5146 13.8928 66.256 14.2869C66.9941 14.6775 67.9931 14.7774 68.6091 14.2103C67.8332 15.4578 66.2128 16.1116 64.7898 15.7575Z" fill="#F3E1D1"/>
<path d="M48.6542 5.55758C48.9039 5.97269 49.066 6.43663 49.3057 6.8584C49.4667 7.14032 49.6742 7.41336 49.935 7.60426C49.6121 7.84179 49.3035 8.10595 49.0116 8.39897C48.5621 8.84849 48.1769 9.33908 47.8606 9.8563C47.3367 9.43675 47.0537 8.7275 46.9349 8.04712C46.7917 7.22245 46.8239 6.36337 46.5775 5.5609C46.3311 4.76286 45.6963 3.98592 44.8594 3.95152C46.2912 3.61743 47.8983 4.30115 48.6542 5.55758Z" fill="#F3E1D1"/>
<path d="M60.5621 22.4413C60.3124 22.0262 60.1503 21.5622 59.9106 21.1405C59.7496 20.8586 59.5421 20.5855 59.2812 20.3946C59.6042 20.1571 59.9128 19.8929 60.2047 19.5999C60.6542 19.1504 61.0394 18.6598 61.3557 18.1426C61.8796 18.5621 62.1626 19.2714 62.2814 19.9518C62.4245 20.7764 62.3924 21.6355 62.6388 22.438C62.8852 23.236 63.52 24.013 64.3569 24.0474C62.9262 24.3803 61.3191 23.6977 60.5621 22.4413Z" fill="#F3E1D1"/>
<path d="M46.1666 19.9547C46.5817 19.7049 47.0456 19.5429 47.4674 19.3031C47.7493 19.1422 48.0223 18.9347 48.2132 18.6738C48.4508 18.9968 48.7149 19.3054 49.0079 19.5973C49.4575 20.0468 49.9481 20.4319 50.4653 20.7483C50.0457 21.2721 49.3365 21.5552 48.6561 21.6739C47.8314 21.8171 46.9724 21.7849 46.1699 22.0313C45.3718 22.2777 44.5949 22.9126 44.5605 23.7495C44.2275 22.3177 44.9101 20.7105 46.1666 19.9547Z" fill="#F3E1D1"/>
<path d="M63.0487 8.04482C62.6336 8.29456 62.1697 8.45659 61.7479 8.69634C61.466 8.85727 61.1929 9.06483 61.002 9.32566C60.7645 9.00268 60.5003 8.69412 60.2073 8.40221C59.7578 7.95269 59.2672 7.56756 58.75 7.25123C59.1695 6.72735 59.8788 6.44432 60.5592 6.32556C61.3838 6.18238 62.2429 6.21456 63.0454 5.96816C63.8434 5.72176 64.6204 5.08688 64.6548 4.25C64.9889 5.68069 64.3052 7.28786 63.0487 8.04482Z" fill="#F3E1D1"/>
<path d="M35.9434 12.7246L37.7615 16.0066L35.9434 19.4518L34.1953 15.9822L35.9434 12.7246Z" fill="#CC9669"/>
<path d="M30.9694 17.3262C29.7196 17.3262 29.7174 19.2685 30.9694 19.2685C32.2192 19.2685 32.2214 17.3262 30.9694 17.3262Z" fill="#CC9669"/>
<path d="M40.11 17.1719C38.8603 17.1719 38.858 19.1142 40.11 19.1142C41.3598 19.1131 41.362 17.1719 40.11 17.1719Z" fill="#CC9669"/>
<path d="M33.2507 11.0117C32.0009 11.0117 31.9987 12.9541 33.2507 12.9541C34.5004 12.953 34.5015 11.0117 33.2507 11.0117Z" fill="#CC9669"/>
<path d="M90.4758 30.8496L92.2927 34.1316L90.4758 37.5768L88.7266 34.1072L90.4758 30.8496Z" fill="#CC9669"/>
<path d="M91.071 24.8398C89.8212 24.8398 89.819 26.7822 91.071 26.7822C92.3207 26.7822 92.323 24.8398 91.071 24.8398Z" fill="#CC9669"/>
<path d="M86.8678 28.6367C85.6181 28.6367 85.6159 30.5791 86.8678 30.5791C88.1176 30.5791 88.1198 28.6367 86.8678 28.6367Z" fill="#CC9669"/>
</svg>
